<svg width="448" height="208" viewBox="0 0 448 208" fill="none" xmlns="http://www.w3.org/2000/svg" xmlns:xlink="http://www.w3.org/1999/xlink">
<foreignObject x="0" y="0" width="0" height="0"><div xmlns="http://www.w3.org/1999/xhtml" style="backdrop-filter:blur(4px);clip-path:url(#bgblur_0_2487_77823_clip_path);height:100%;width:100%"></div></foreignObject><g data-figma-bg-blur-radius="8">
<rect width="448" height="208" rx="24" fill="url(#pattern0_2487_77823)" fill-opacity="0.2" style="mix-blend-mode:color-burn"/>
</g>
<defs>
<clipPath id="bgblur_0_2487_77823_clip_path" transform="translate(0 0)"><rect width="448" height="208" rx="24"/>
</clipPath><pattern id="pattern0_2487_77823" patternUnits="userSpaceOnUse" patternTransform="matrix(46 0 0 38 201 85)" preserveAspectRatio="none" viewBox="0 0 46 38" width="1" height="1">
<g id="pattern0_2487_77823_inner">
<rect x="8" width="2" height="2" fill="#949B99" fill-opacity="0.1"/>
<rect x="28" width="2" height="2" fill="#949B99" fill-opacity="0.1"/>
<rect x="36" width="2" height="2" fill="#949B99" fill-opacity="0.1"/>
<rect x="40" width="2" height="2" fill="#949B99" fill-opacity="0.1"/>
<rect x="4" y="4" width="2" height="2" fill="#949B99" fill-opacity="0.1"/>
<rect x="12" y="4" width="2" height="2" fill="#949B99" fill-opacity="0.1"/>
<rect x="16" y="4" width="2" height="2" fill="#949B99" fill-opacity="0.1"/>
<rect x="20" y="4" width="2" height="2" fill="#949B99" fill-opacity="0.1"/>
<rect x="28" y="4" width="2" height="2" fill="#949B99" fill-opacity="0.1"/>
<rect x="32" y="4" width="2" height="2" fill="#949B99"/>
<rect x="36" y="4" width="2" height="2" fill="#949B99" fill-opacity="0.1"/>
<path d="M40 4H42V6H40V4Z" fill="#949B99" fill-opacity="0.4"/>
<rect x="44" y="4" width="2" height="2" fill="#949B99" fill-opacity="0.1"/>
<rect y="8" width="2" height="2" fill="#949B99" fill-opacity="0.1"/>
<rect x="4" y="8" width="2" height="2" fill="#949B99" fill-opacity="0.1"/>
<rect x="8" y="8" width="2" height="2" fill="#949B99" fill-opacity="0.1"/>
<path d="M12 8H14V10H12V8Z" fill="#949B99" fill-opacity="0.4"/>
<rect x="16" y="8" width="2" height="2" fill="#949B99" fill-opacity="0.1"/>
<rect x="20" y="8" width="2" height="2" fill="#949B99" fill-opacity="0.2"/>
<rect x="24" y="8" width="2" height="2" fill="#949B99" fill-opacity="0.1"/>
<rect x="28" y="8" width="2" height="2" fill="#949B99" fill-opacity="0.1"/>
<rect x="32" y="8" width="2" height="2" fill="#949B99" fill-opacity="0.2"/>
<rect x="36" y="8" width="2" height="2" fill="#949B99" fill-opacity="0.1"/>
<rect x="40" y="8" width="2" height="2" fill="#949B99" fill-opacity="0.1"/>
<rect y="12" width="2" height="2" fill="#949B99" fill-opacity="0.1"/>
<rect x="4" y="12" width="2" height="2" fill="#949B99" fill-opacity="0.1"/>
<path d="M8 12H10V14H8V12Z" fill="#949B99" fill-opacity="0.4"/>
<rect x="12" y="12" width="2" height="2" fill="#949B99"/>
<path d="M16 12H18V14H16V12Z" fill="#949B99" fill-opacity="0.4"/>
<rect x="20" y="12" width="2" height="2" fill="#949B99" fill-opacity="0.1"/>
<rect x="24" y="12" width="2" height="2" fill="#949B99" fill-opacity="0.2"/>
<rect x="28" y="12" width="2" height="2" fill="#949B99" fill-opacity="0.1"/>
<rect x="32" y="12" width="2" height="2" fill="#949B99" fill-opacity="0.1"/>
<rect x="36" y="12" width="2" height="2" fill="#949B99" fill-opacity="0.1"/>
<rect x="40" y="12" width="2" height="2" fill="#949B99" fill-opacity="0.1"/>
<rect x="44" y="12" width="2" height="2" fill="#949B99" fill-opacity="0.1"/>
<rect y="16" width="2" height="2" fill="#949B99" fill-opacity="0.2"/>
<rect x="4" y="16" width="2" height="2" fill="#949B99" fill-opacity="0.2"/>
<rect x="8" y="16" width="2" height="2" fill="#949B99" fill-opacity="0.1"/>
<path d="M12 16H14V18H12V16Z" fill="#949B99" fill-opacity="0.4"/>
<rect x="16" y="16" width="2" height="2" fill="#949B99" fill-opacity="0.1"/>
<rect x="20" y="16" width="2" height="2" fill="#949B99" fill-opacity="0.1"/>
<rect x="24" y="16" width="2" height="2" fill="#949B99" fill-opacity="0.1"/>
<rect x="28" y="16" width="2" height="2" fill="#949B99" fill-opacity="0.4"/>
<rect x="36" y="16" width="2" height="2" fill="#949B99" fill-opacity="0.2"/>
<rect x="40" y="16" width="2" height="2" fill="#949B99" fill-opacity="0.1"/>
<rect y="20" width="2" height="2" fill="#949B99" fill-opacity="0.1"/>
<path d="M4 20H6V22H4V20Z" fill="#949B99" fill-opacity="0.4"/>
<rect x="8" y="20" width="2" height="2" fill="#949B99" fill-opacity="0.2"/>
<rect x="12" y="20" width="2" height="2" fill="#949B99" fill-opacity="0.1"/>
<rect x="16" y="20" width="2" height="2" fill="#949B99" fill-opacity="0.1"/>
<rect x="20" y="20" width="2" height="2" fill="#949B99" fill-opacity="0.4"/>
<rect x="24" y="20" width="2" height="2" fill="#949B99" fill-opacity="0.4"/>
<rect x="28" y="20" width="2" height="2" fill="#949B99"/>
<rect x="32" y="20" width="2" height="2" fill="#949B99" fill-opacity="0.4"/>
<rect x="36" y="20" width="2" height="2" fill="#949B99" fill-opacity="0.1"/>
<rect x="40" y="20" width="2" height="2" fill="#949B99" fill-opacity="0.2"/>
<rect x="44" y="20" width="2" height="2" fill="#949B99" fill-opacity="0.1"/>
<rect y="24" width="2" height="2" fill="#949B99" fill-opacity="0.2"/>
<rect x="4" y="24" width="2" height="2" fill="#949B99" fill-opacity="0.1"/>
<rect x="8" y="24" width="2" height="2" fill="#949B99" fill-opacity="0.1"/>
<path d="M12 24H14V26H12V24Z" fill="#949B99" fill-opacity="0.4"/>
<rect x="16" y="24" width="2" height="2" fill="#949B99" fill-opacity="0.1"/>
<rect x="20" y="24" width="2" height="2" fill="#949B99" fill-opacity="0.1"/>
<rect x="24" y="24" width="2" height="2" fill="#949B99" fill-opacity="0.1"/>
<rect x="28" y="24" width="2" height="2" fill="#949B99" fill-opacity="0.4"/>
<rect x="32" y="24" width="2" height="2" fill="#949B99" fill-opacity="0.1"/>
<rect x="36" y="24" width="2" height="2" fill="#949B99" fill-opacity="0.1"/>
<rect x="40" y="24" width="2" height="2" fill="#949B99" fill-opacity="0.1"/>
<rect x="44" y="24" width="2" height="2" fill="#949B99" fill-opacity="0.1"/>
<rect y="28" width="2" height="2" fill="#949B99" fill-opacity="0.1"/>
<rect x="8" y="28" width="2" height="2" fill="#949B99" fill-opacity="0.1"/>
<rect x="12" y="28" width="2" height="2" fill="#949B99" fill-opacity="0.1"/>
<path d="M16 28H18V30H16V28Z" fill="#949B99" fill-opacity="0.4"/>
<rect x="20" y="28" width="2" height="2" fill="#949B99" fill-opacity="0.1"/>
<rect x="24" y="28" width="2" height="2" fill="#949B99" fill-opacity="0.1"/>
<rect x="28" y="28" width="2" height="2" fill="#949B99" fill-opacity="0.1"/>
<rect x="32" y="28" width="2" height="2" fill="#949B99" fill-opacity="0.1"/>
<rect x="36" y="28" width="2" height="2" fill="#949B99" fill-opacity="0.1"/>
<rect x="40" y="28" width="2" height="2" fill="#949B99" fill-opacity="0.1"/>
<rect x="44" y="28" width="2" height="2" fill="#949B99"/>
<rect x="4" y="32" width="2" height="2" fill="#949B99" fill-opacity="0.1"/>
<rect x="8" y="32" width="2" height="2" fill="#949B99" fill-opacity="0.1"/>
<path d="M12 32H14V34H12V32Z" fill="#949B99" fill-opacity="0.4"/>
<rect x="16" y="32" width="2" height="2" fill="#949B99"/>
<rect x="20" y="32" width="2" height="2" fill="#949B99" fill-opacity="0.1"/>
<rect x="24" y="32" width="2" height="2" fill="#949B99" fill-opacity="0.1"/>
<rect x="32" y="32" width="2" height="2" fill="#949B99" fill-opacity="0.2"/>
<path d="M36 32H38V34H36V32Z" fill="#949B99" fill-opacity="0.4"/>
<rect x="40" y="32" width="2" height="2" fill="#949B99" fill-opacity="0.1"/>
<rect x="44" y="32" width="2" height="2" fill="#949B99" fill-opacity="0.1"/>
<rect x="4" y="36" width="2" height="2" fill="#949B99" fill-opacity="0.1"/>
<rect x="12" y="36" width="2" height="2" fill="#949B99" fill-opacity="0.1"/>
<path d="M16 36H18V38H16V36Z" fill="#949B99" fill-opacity="0.4"/>
<rect x="20" y="36" width="2" height="2" fill="#949B99" fill-opacity="0.1"/>
<rect x="44" y="36" width="2" height="2" fill="#949B99" fill-opacity="0.1"/>
</g>
</pattern></defs>
</svg>
